<mxfile host="app.diagrams.net" modified="2023-10-08T12:38:10.302Z" agent="Mozilla/5.0 (Windows NT 10.0; Win64; x64) AppleWebKit/537.36 (KHTML, like Gecko) Chrome/117.0.0.0 Safari/537.36" etag="g4gR_NbpZMXy7MYJEdZg" version="22.0.4" type="github">
  <diagram id="C5RBs43oDa-KdzZeNtuy" name="Page-1">
    <mxGraphModel dx="3217" dy="2512" grid="1" gridSize="10" guides="1" tooltips="1" connect="1" arrows="1" fold="1" page="1" pageScale="1" pageWidth="827" pageHeight="1169" math="0" shadow="0">
      <root>
        <mxCell id="WIyWlLk6GJQsqaUBKTNV-0" />
        <mxCell id="WIyWlLk6GJQsqaUBKTNV-1" parent="WIyWlLk6GJQsqaUBKTNV-0" />
        <mxCell id="WIyWlLk6GJQsqaUBKTNV-3" value="&lt;font style=&quot;font-size: 24px;&quot;&gt;FRONTEND&lt;/font&gt;" style="rounded=1;whiteSpace=wrap;html=1;fontSize=12;glass=0;strokeWidth=1;shadow=0;" parent="WIyWlLk6GJQsqaUBKTNV-1" vertex="1">
          <mxGeometry x="-360" y="130" width="170" height="570" as="geometry" />
        </mxCell>
        <mxCell id="n_4jIyUV8x4lz0zzY2AS-1" value="&lt;font style=&quot;font-size: 24px;&quot;&gt;SOUL SEARCH&lt;br&gt;(CONTEXT SEARCHING)&lt;/font&gt;" style="rounded=1;whiteSpace=wrap;html=1;fontSize=12;glass=0;strokeWidth=1;shadow=0;" vertex="1" parent="WIyWlLk6GJQsqaUBKTNV-1">
          <mxGeometry x="-660" y="160" width="170" height="160" as="geometry" />
        </mxCell>
        <mxCell id="n_4jIyUV8x4lz0zzY2AS-7" style="edgeStyle=orthogonalEdgeStyle;rounded=0;orthogonalLoop=1;jettySize=auto;html=1;entryX=0;entryY=0.75;entryDx=0;entryDy=0;" edge="1" parent="WIyWlLk6GJQsqaUBKTNV-1" source="n_4jIyUV8x4lz0zzY2AS-2" target="WIyWlLk6GJQsqaUBKTNV-3">
          <mxGeometry relative="1" as="geometry" />
        </mxCell>
        <mxCell id="n_4jIyUV8x4lz0zzY2AS-2" value="&lt;font style=&quot;font-size: 24px;&quot;&gt;SOUL LENS&lt;br&gt;(Upload File)&lt;/font&gt;" style="rounded=1;whiteSpace=wrap;html=1;fontSize=12;glass=0;strokeWidth=1;shadow=0;" vertex="1" parent="WIyWlLk6GJQsqaUBKTNV-1">
          <mxGeometry x="-659" y="507" width="160" height="100" as="geometry" />
        </mxCell>
        <mxCell id="n_4jIyUV8x4lz0zzY2AS-5" style="edgeStyle=orthogonalEdgeStyle;rounded=0;orthogonalLoop=1;jettySize=auto;html=1;entryX=0;entryY=0.193;entryDx=0;entryDy=0;entryPerimeter=0;" edge="1" parent="WIyWlLk6GJQsqaUBKTNV-1" source="n_4jIyUV8x4lz0zzY2AS-1" target="WIyWlLk6GJQsqaUBKTNV-3">
          <mxGeometry relative="1" as="geometry" />
        </mxCell>
        <mxCell id="n_4jIyUV8x4lz0zzY2AS-16" style="edgeStyle=orthogonalEdgeStyle;rounded=0;orthogonalLoop=1;jettySize=auto;html=1;" edge="1" parent="WIyWlLk6GJQsqaUBKTNV-1" source="n_4jIyUV8x4lz0zzY2AS-8" target="n_4jIyUV8x4lz0zzY2AS-15">
          <mxGeometry relative="1" as="geometry" />
        </mxCell>
        <mxCell id="n_4jIyUV8x4lz0zzY2AS-8" value="&lt;font style=&quot;font-size: 24px;&quot;&gt;FAST API LAYER&lt;/font&gt;" style="rounded=1;whiteSpace=wrap;html=1;fontSize=12;glass=0;strokeWidth=1;shadow=0;" vertex="1" parent="WIyWlLk6GJQsqaUBKTNV-1">
          <mxGeometry x="20" y="130" width="170" height="570" as="geometry" />
        </mxCell>
        <mxCell id="n_4jIyUV8x4lz0zzY2AS-9" value="" style="shape=flexArrow;endArrow=classic;html=1;rounded=0;exitX=1;exitY=0.25;exitDx=0;exitDy=0;entryX=0;entryY=0.25;entryDx=0;entryDy=0;" edge="1" parent="WIyWlLk6GJQsqaUBKTNV-1">
          <mxGeometry width="50" height="50" relative="1" as="geometry">
            <mxPoint x="-190" y="249" as="sourcePoint" />
            <mxPoint x="20" y="249" as="targetPoint" />
          </mxGeometry>
        </mxCell>
        <mxCell id="n_4jIyUV8x4lz0zzY2AS-10" value="" style="shape=flexArrow;endArrow=classic;html=1;rounded=0;exitX=1;exitY=0.25;exitDx=0;exitDy=0;entryX=0;entryY=0.25;entryDx=0;entryDy=0;" edge="1" parent="WIyWlLk6GJQsqaUBKTNV-1">
          <mxGeometry width="50" height="50" relative="1" as="geometry">
            <mxPoint x="-190" y="400" as="sourcePoint" />
            <mxPoint x="20" y="400" as="targetPoint" />
          </mxGeometry>
        </mxCell>
        <mxCell id="n_4jIyUV8x4lz0zzY2AS-11" value="" style="shape=flexArrow;endArrow=classic;html=1;rounded=0;exitX=1;exitY=0.25;exitDx=0;exitDy=0;entryX=0;entryY=0.25;entryDx=0;entryDy=0;" edge="1" parent="WIyWlLk6GJQsqaUBKTNV-1">
          <mxGeometry width="50" height="50" relative="1" as="geometry">
            <mxPoint x="-190" y="560" as="sourcePoint" />
            <mxPoint x="20" y="560" as="targetPoint" />
          </mxGeometry>
        </mxCell>
        <mxCell id="n_4jIyUV8x4lz0zzY2AS-12" value="&lt;font style=&quot;font-size: 24px;&quot;&gt;Search/&lt;/font&gt;" style="text;html=1;align=center;verticalAlign=middle;resizable=0;points=[];autosize=1;strokeColor=none;fillColor=none;" vertex="1" parent="WIyWlLk6GJQsqaUBKTNV-1">
          <mxGeometry x="-155" y="213" width="110" height="40" as="geometry" />
        </mxCell>
        <mxCell id="n_4jIyUV8x4lz0zzY2AS-13" value="&lt;font style=&quot;font-size: 24px;&quot;&gt;getfile/&lt;/font&gt;" style="text;html=1;align=center;verticalAlign=middle;resizable=0;points=[];autosize=1;strokeColor=none;fillColor=none;" vertex="1" parent="WIyWlLk6GJQsqaUBKTNV-1">
          <mxGeometry x="-144" y="365" width="90" height="40" as="geometry" />
        </mxCell>
        <mxCell id="n_4jIyUV8x4lz0zzY2AS-14" value="&lt;font style=&quot;font-size: 24px;&quot;&gt;uploadfile/&lt;/font&gt;" style="text;html=1;align=center;verticalAlign=middle;resizable=0;points=[];autosize=1;strokeColor=none;fillColor=none;" vertex="1" parent="WIyWlLk6GJQsqaUBKTNV-1">
          <mxGeometry x="-160" y="524" width="130" height="40" as="geometry" />
        </mxCell>
        <mxCell id="n_4jIyUV8x4lz0zzY2AS-15" value="&lt;font style=&quot;font-size: 24px;&quot;&gt;BACKEND SERVICE PROVIDER LAYER&lt;/font&gt;" style="rounded=1;whiteSpace=wrap;html=1;fontSize=12;glass=0;strokeWidth=1;shadow=0;" vertex="1" parent="WIyWlLk6GJQsqaUBKTNV-1">
          <mxGeometry x="320" y="350" width="170" height="130" as="geometry" />
        </mxCell>
        <mxCell id="n_4jIyUV8x4lz0zzY2AS-17" value="&lt;font style=&quot;font-size: 24px;&quot;&gt;STORAGE SERVICE&amp;nbsp;&lt;/font&gt;" style="rounded=1;whiteSpace=wrap;html=1;fontSize=12;glass=0;strokeWidth=1;shadow=0;" vertex="1" parent="WIyWlLk6GJQsqaUBKTNV-1">
          <mxGeometry x="320" y="607" width="170" height="130" as="geometry" />
        </mxCell>
        <mxCell id="n_4jIyUV8x4lz0zzY2AS-18" value="&lt;font style=&quot;font-size: 24px;&quot;&gt;PRE-PROCESS QUERY&lt;/font&gt;" style="rounded=1;whiteSpace=wrap;html=1;fontSize=12;glass=0;strokeWidth=1;shadow=0;" vertex="1" parent="WIyWlLk6GJQsqaUBKTNV-1">
          <mxGeometry x="520" y="110" width="170" height="130" as="geometry" />
        </mxCell>
        <mxCell id="n_4jIyUV8x4lz0zzY2AS-19" value="&lt;font style=&quot;font-size: 24px;&quot;&gt;CONTROLLER&lt;/font&gt;" style="rounded=1;whiteSpace=wrap;html=1;fontSize=12;glass=0;strokeWidth=1;shadow=0;" vertex="1" parent="WIyWlLk6GJQsqaUBKTNV-1">
          <mxGeometry x="530" y="410" width="160" height="90" as="geometry" />
        </mxCell>
        <mxCell id="n_4jIyUV8x4lz0zzY2AS-54" value="" style="edgeStyle=orthogonalEdgeStyle;rounded=0;orthogonalLoop=1;jettySize=auto;html=1;" edge="1" parent="WIyWlLk6GJQsqaUBKTNV-1" source="n_4jIyUV8x4lz0zzY2AS-20" target="n_4jIyUV8x4lz0zzY2AS-53">
          <mxGeometry relative="1" as="geometry" />
        </mxCell>
        <mxCell id="n_4jIyUV8x4lz0zzY2AS-20" value="&lt;font style=&quot;font-size: 24px;&quot;&gt;PRE-PROCESSED TEXT LAYER SERVICE&lt;/font&gt;" style="rounded=1;whiteSpace=wrap;html=1;fontSize=12;glass=0;strokeWidth=1;shadow=0;" vertex="1" parent="WIyWlLk6GJQsqaUBKTNV-1">
          <mxGeometry x="1020" y="180" width="170" height="730" as="geometry" />
        </mxCell>
        <mxCell id="n_4jIyUV8x4lz0zzY2AS-21" value="" style="shape=flexArrow;endArrow=classic;startArrow=classic;html=1;rounded=0;exitX=0.5;exitY=0;exitDx=0;exitDy=0;entryX=0.5;entryY=1;entryDx=0;entryDy=0;" edge="1" parent="WIyWlLk6GJQsqaUBKTNV-1" source="n_4jIyUV8x4lz0zzY2AS-17" target="n_4jIyUV8x4lz0zzY2AS-15">
          <mxGeometry width="100" height="100" relative="1" as="geometry">
            <mxPoint x="470" y="460" as="sourcePoint" />
            <mxPoint x="570" y="360" as="targetPoint" />
          </mxGeometry>
        </mxCell>
        <mxCell id="n_4jIyUV8x4lz0zzY2AS-22" value="" style="endArrow=classic;html=1;rounded=0;exitX=1;exitY=0.5;exitDx=0;exitDy=0;entryX=0;entryY=0.5;entryDx=0;entryDy=0;" edge="1" parent="WIyWlLk6GJQsqaUBKTNV-1" source="n_4jIyUV8x4lz0zzY2AS-17" target="n_4jIyUV8x4lz0zzY2AS-19">
          <mxGeometry width="50" height="50" relative="1" as="geometry">
            <mxPoint x="500" y="440" as="sourcePoint" />
            <mxPoint x="550" y="390" as="targetPoint" />
          </mxGeometry>
        </mxCell>
        <mxCell id="n_4jIyUV8x4lz0zzY2AS-23" value="&lt;font style=&quot;font-size: 12px;&quot;&gt;NEW FILE EVENT TRIGGER&lt;/font&gt;" style="edgeLabel;html=1;align=center;verticalAlign=middle;resizable=0;points=[];" vertex="1" connectable="0" parent="n_4jIyUV8x4lz0zzY2AS-22">
          <mxGeometry x="0.0271" y="4" relative="1" as="geometry">
            <mxPoint x="2" y="10" as="offset" />
          </mxGeometry>
        </mxCell>
        <mxCell id="n_4jIyUV8x4lz0zzY2AS-24" style="edgeStyle=orthogonalEdgeStyle;rounded=0;orthogonalLoop=1;jettySize=auto;html=1;exitX=0.5;exitY=1;exitDx=0;exitDy=0;" edge="1" parent="WIyWlLk6GJQsqaUBKTNV-1" source="n_4jIyUV8x4lz0zzY2AS-19" target="n_4jIyUV8x4lz0zzY2AS-19">
          <mxGeometry relative="1" as="geometry" />
        </mxCell>
        <mxCell id="n_4jIyUV8x4lz0zzY2AS-25" value="&lt;font style=&quot;font-size: 24px;&quot;&gt;PDF&lt;/font&gt;" style="rounded=1;whiteSpace=wrap;html=1;fontSize=12;glass=0;strokeWidth=1;shadow=0;" vertex="1" parent="WIyWlLk6GJQsqaUBKTNV-1">
          <mxGeometry x="780" y="202" width="120" height="80" as="geometry" />
        </mxCell>
        <mxCell id="n_4jIyUV8x4lz0zzY2AS-26" value="&lt;font style=&quot;font-size: 24px;&quot;&gt;PPT&lt;/font&gt;" style="rounded=1;whiteSpace=wrap;html=1;fontSize=12;glass=0;strokeWidth=1;shadow=0;" vertex="1" parent="WIyWlLk6GJQsqaUBKTNV-1">
          <mxGeometry x="780" y="322" width="120" height="80" as="geometry" />
        </mxCell>
        <mxCell id="n_4jIyUV8x4lz0zzY2AS-27" value="&lt;font style=&quot;font-size: 24px;&quot;&gt;VIDEO&lt;/font&gt;" style="rounded=1;whiteSpace=wrap;html=1;fontSize=12;glass=0;strokeWidth=1;shadow=0;" vertex="1" parent="WIyWlLk6GJQsqaUBKTNV-1">
          <mxGeometry x="780" y="441" width="120" height="80" as="geometry" />
        </mxCell>
        <mxCell id="n_4jIyUV8x4lz0zzY2AS-28" value="&lt;font style=&quot;font-size: 24px;&quot;&gt;AUDIO&lt;/font&gt;" style="rounded=1;whiteSpace=wrap;html=1;fontSize=12;glass=0;strokeWidth=1;shadow=0;" vertex="1" parent="WIyWlLk6GJQsqaUBKTNV-1">
          <mxGeometry x="780" y="569" width="120" height="80" as="geometry" />
        </mxCell>
        <mxCell id="n_4jIyUV8x4lz0zzY2AS-29" value="&lt;font style=&quot;font-size: 24px;&quot;&gt;IMG&lt;/font&gt;" style="rounded=1;whiteSpace=wrap;html=1;fontSize=12;glass=0;strokeWidth=1;shadow=0;" vertex="1" parent="WIyWlLk6GJQsqaUBKTNV-1">
          <mxGeometry x="780" y="692" width="120" height="80" as="geometry" />
        </mxCell>
        <mxCell id="n_4jIyUV8x4lz0zzY2AS-30" value="&lt;font style=&quot;font-size: 24px;&quot;&gt;DOCX&lt;/font&gt;" style="rounded=1;whiteSpace=wrap;html=1;fontSize=12;glass=0;strokeWidth=1;shadow=0;" vertex="1" parent="WIyWlLk6GJQsqaUBKTNV-1">
          <mxGeometry x="780" y="832" width="120" height="80" as="geometry" />
        </mxCell>
        <mxCell id="n_4jIyUV8x4lz0zzY2AS-31" value="" style="endArrow=classic;html=1;rounded=0;entryX=-0.029;entryY=0.085;entryDx=0;entryDy=0;entryPerimeter=0;exitX=1;exitY=0.5;exitDx=0;exitDy=0;" edge="1" parent="WIyWlLk6GJQsqaUBKTNV-1" source="n_4jIyUV8x4lz0zzY2AS-25" target="n_4jIyUV8x4lz0zzY2AS-20">
          <mxGeometry width="50" height="50" relative="1" as="geometry">
            <mxPoint x="500" y="630" as="sourcePoint" />
            <mxPoint x="550" y="580" as="targetPoint" />
          </mxGeometry>
        </mxCell>
        <mxCell id="n_4jIyUV8x4lz0zzY2AS-32" value="" style="endArrow=classic;html=1;rounded=0;entryX=-0.029;entryY=0.085;entryDx=0;entryDy=0;entryPerimeter=0;exitX=1;exitY=0.5;exitDx=0;exitDy=0;" edge="1" parent="WIyWlLk6GJQsqaUBKTNV-1">
          <mxGeometry width="50" height="50" relative="1" as="geometry">
            <mxPoint x="904.93" y="361.5" as="sourcePoint" />
            <mxPoint x="1019.93" y="361.5" as="targetPoint" />
          </mxGeometry>
        </mxCell>
        <mxCell id="n_4jIyUV8x4lz0zzY2AS-33" value="" style="endArrow=classic;html=1;rounded=0;entryX=-0.029;entryY=0.085;entryDx=0;entryDy=0;entryPerimeter=0;exitX=1;exitY=0.5;exitDx=0;exitDy=0;" edge="1" parent="WIyWlLk6GJQsqaUBKTNV-1">
          <mxGeometry width="50" height="50" relative="1" as="geometry">
            <mxPoint x="900" y="480.5" as="sourcePoint" />
            <mxPoint x="1015" y="480.5" as="targetPoint" />
          </mxGeometry>
        </mxCell>
        <mxCell id="n_4jIyUV8x4lz0zzY2AS-34" value="" style="endArrow=classic;html=1;rounded=0;entryX=-0.029;entryY=0.085;entryDx=0;entryDy=0;entryPerimeter=0;exitX=1;exitY=0.5;exitDx=0;exitDy=0;" edge="1" parent="WIyWlLk6GJQsqaUBKTNV-1">
          <mxGeometry width="50" height="50" relative="1" as="geometry">
            <mxPoint x="900" y="607" as="sourcePoint" />
            <mxPoint x="1015" y="607" as="targetPoint" />
          </mxGeometry>
        </mxCell>
        <mxCell id="n_4jIyUV8x4lz0zzY2AS-35" value="" style="endArrow=classic;html=1;rounded=0;entryX=-0.029;entryY=0.085;entryDx=0;entryDy=0;entryPerimeter=0;exitX=1;exitY=0.5;exitDx=0;exitDy=0;" edge="1" parent="WIyWlLk6GJQsqaUBKTNV-1">
          <mxGeometry width="50" height="50" relative="1" as="geometry">
            <mxPoint x="900" y="730" as="sourcePoint" />
            <mxPoint x="1015" y="730" as="targetPoint" />
          </mxGeometry>
        </mxCell>
        <mxCell id="n_4jIyUV8x4lz0zzY2AS-36" value="" style="endArrow=classic;html=1;rounded=0;entryX=-0.029;entryY=0.085;entryDx=0;entryDy=0;entryPerimeter=0;exitX=1;exitY=0.5;exitDx=0;exitDy=0;" edge="1" parent="WIyWlLk6GJQsqaUBKTNV-1">
          <mxGeometry width="50" height="50" relative="1" as="geometry">
            <mxPoint x="900" y="871.5" as="sourcePoint" />
            <mxPoint x="1015" y="871.5" as="targetPoint" />
          </mxGeometry>
        </mxCell>
        <mxCell id="n_4jIyUV8x4lz0zzY2AS-37" value="" style="endArrow=classic;html=1;rounded=0;entryX=0;entryY=0.5;entryDx=0;entryDy=0;exitX=0.926;exitY=-0.03;exitDx=0;exitDy=0;exitPerimeter=0;" edge="1" parent="WIyWlLk6GJQsqaUBKTNV-1" source="n_4jIyUV8x4lz0zzY2AS-19" target="n_4jIyUV8x4lz0zzY2AS-25">
          <mxGeometry width="50" height="50" relative="1" as="geometry">
            <mxPoint x="650" y="384.29" as="sourcePoint" />
            <mxPoint x="765" y="384.29" as="targetPoint" />
          </mxGeometry>
        </mxCell>
        <mxCell id="n_4jIyUV8x4lz0zzY2AS-38" value="" style="endArrow=classic;html=1;rounded=0;entryX=0;entryY=0.5;entryDx=0;entryDy=0;" edge="1" parent="WIyWlLk6GJQsqaUBKTNV-1" target="n_4jIyUV8x4lz0zzY2AS-26">
          <mxGeometry width="50" height="50" relative="1" as="geometry">
            <mxPoint x="690" y="410" as="sourcePoint" />
            <mxPoint x="780" y="360" as="targetPoint" />
          </mxGeometry>
        </mxCell>
        <mxCell id="n_4jIyUV8x4lz0zzY2AS-39" value="" style="endArrow=classic;html=1;rounded=0;entryX=0;entryY=0.5;entryDx=0;entryDy=0;exitX=1;exitY=0;exitDx=0;exitDy=0;" edge="1" parent="WIyWlLk6GJQsqaUBKTNV-1" source="n_4jIyUV8x4lz0zzY2AS-19" target="n_4jIyUV8x4lz0zzY2AS-27">
          <mxGeometry width="50" height="50" relative="1" as="geometry">
            <mxPoint x="660" y="468" as="sourcePoint" />
            <mxPoint x="780" y="410" as="targetPoint" />
          </mxGeometry>
        </mxCell>
        <mxCell id="n_4jIyUV8x4lz0zzY2AS-40" value="" style="endArrow=classic;html=1;rounded=0;entryX=0;entryY=0.5;entryDx=0;entryDy=0;exitX=0.75;exitY=1;exitDx=0;exitDy=0;" edge="1" parent="WIyWlLk6GJQsqaUBKTNV-1" source="n_4jIyUV8x4lz0zzY2AS-19" target="n_4jIyUV8x4lz0zzY2AS-28">
          <mxGeometry width="50" height="50" relative="1" as="geometry">
            <mxPoint x="680" y="507" as="sourcePoint" />
            <mxPoint x="770" y="548" as="targetPoint" />
          </mxGeometry>
        </mxCell>
        <mxCell id="n_4jIyUV8x4lz0zzY2AS-41" value="" style="endArrow=classic;html=1;rounded=0;exitX=0.75;exitY=1;exitDx=0;exitDy=0;entryX=0;entryY=0.5;entryDx=0;entryDy=0;" edge="1" parent="WIyWlLk6GJQsqaUBKTNV-1" source="n_4jIyUV8x4lz0zzY2AS-19" target="n_4jIyUV8x4lz0zzY2AS-29">
          <mxGeometry width="50" height="50" relative="1" as="geometry">
            <mxPoint x="660" y="580" as="sourcePoint" />
            <mxPoint x="750" y="621" as="targetPoint" />
          </mxGeometry>
        </mxCell>
        <mxCell id="n_4jIyUV8x4lz0zzY2AS-42" value="" style="endArrow=classic;html=1;rounded=0;entryX=0;entryY=0.5;entryDx=0;entryDy=0;exitX=0.75;exitY=1;exitDx=0;exitDy=0;" edge="1" parent="WIyWlLk6GJQsqaUBKTNV-1" source="n_4jIyUV8x4lz0zzY2AS-19" target="n_4jIyUV8x4lz0zzY2AS-30">
          <mxGeometry width="50" height="50" relative="1" as="geometry">
            <mxPoint x="620" y="648" as="sourcePoint" />
            <mxPoint x="710" y="689" as="targetPoint" />
          </mxGeometry>
        </mxCell>
        <mxCell id="n_4jIyUV8x4lz0zzY2AS-50" value="" style="edgeStyle=orthogonalEdgeStyle;rounded=0;orthogonalLoop=1;jettySize=auto;html=1;" edge="1" parent="WIyWlLk6GJQsqaUBKTNV-1" source="n_4jIyUV8x4lz0zzY2AS-44" target="n_4jIyUV8x4lz0zzY2AS-49">
          <mxGeometry relative="1" as="geometry" />
        </mxCell>
        <mxCell id="n_4jIyUV8x4lz0zzY2AS-44" value="&lt;font style=&quot;font-size: 24px;&quot;&gt;Elastic Search&lt;/font&gt;" style="rounded=1;whiteSpace=wrap;html=1;fontSize=12;glass=0;strokeWidth=1;shadow=0;" vertex="1" parent="WIyWlLk6GJQsqaUBKTNV-1">
          <mxGeometry x="770" y="-20" width="170" height="130" as="geometry" />
        </mxCell>
        <mxCell id="n_4jIyUV8x4lz0zzY2AS-45" value="" style="shape=flexArrow;endArrow=classic;html=1;rounded=0;entryX=0;entryY=0.5;entryDx=0;entryDy=0;exitX=1.008;exitY=0.067;exitDx=0;exitDy=0;exitPerimeter=0;" edge="1" parent="WIyWlLk6GJQsqaUBKTNV-1" source="n_4jIyUV8x4lz0zzY2AS-8" target="n_4jIyUV8x4lz0zzY2AS-18">
          <mxGeometry width="50" height="50" relative="1" as="geometry">
            <mxPoint x="470" y="580" as="sourcePoint" />
            <mxPoint x="520" y="530" as="targetPoint" />
          </mxGeometry>
        </mxCell>
        <mxCell id="n_4jIyUV8x4lz0zzY2AS-48" value="" style="shape=flexArrow;endArrow=classic;html=1;rounded=0;entryX=0;entryY=0.5;entryDx=0;entryDy=0;exitX=0.5;exitY=0;exitDx=0;exitDy=0;" edge="1" parent="WIyWlLk6GJQsqaUBKTNV-1" source="n_4jIyUV8x4lz0zzY2AS-18" target="n_4jIyUV8x4lz0zzY2AS-44">
          <mxGeometry width="50" height="50" relative="1" as="geometry">
            <mxPoint x="470" y="580" as="sourcePoint" />
            <mxPoint x="520" y="530" as="targetPoint" />
            <Array as="points">
              <mxPoint x="605" y="45" />
            </Array>
          </mxGeometry>
        </mxCell>
        <mxCell id="n_4jIyUV8x4lz0zzY2AS-52" value="" style="edgeStyle=orthogonalEdgeStyle;rounded=0;orthogonalLoop=1;jettySize=auto;html=1;" edge="1" parent="WIyWlLk6GJQsqaUBKTNV-1" source="n_4jIyUV8x4lz0zzY2AS-49" target="n_4jIyUV8x4lz0zzY2AS-51">
          <mxGeometry relative="1" as="geometry" />
        </mxCell>
        <mxCell id="n_4jIyUV8x4lz0zzY2AS-49" value="&lt;blockquote style=&quot;margin: 0 0 0 40px; border: none; padding: 0px;&quot;&gt;&lt;font style=&quot;font-size: 28px;&quot;&gt;Filename&lt;/font&gt;&lt;/blockquote&gt;" style="whiteSpace=wrap;html=1;rounded=1;glass=0;strokeWidth=1;shadow=0;align=left;" vertex="1" parent="WIyWlLk6GJQsqaUBKTNV-1">
          <mxGeometry x="1060" y="7.5" width="175" height="75" as="geometry" />
        </mxCell>
        <mxCell id="n_4jIyUV8x4lz0zzY2AS-51" value="Respond" style="whiteSpace=wrap;html=1;align=center;rounded=1;glass=0;strokeWidth=1;shadow=0;fontSize=28;" vertex="1" parent="WIyWlLk6GJQsqaUBKTNV-1">
          <mxGeometry x="1362.5" width="157.5" height="87.5" as="geometry" />
        </mxCell>
        <mxCell id="n_4jIyUV8x4lz0zzY2AS-56" value="" style="edgeStyle=orthogonalEdgeStyle;rounded=0;orthogonalLoop=1;jettySize=auto;html=1;" edge="1" parent="WIyWlLk6GJQsqaUBKTNV-1" source="n_4jIyUV8x4lz0zzY2AS-53" target="n_4jIyUV8x4lz0zzY2AS-55">
          <mxGeometry relative="1" as="geometry" />
        </mxCell>
        <mxCell id="n_4jIyUV8x4lz0zzY2AS-53" value="Language model" style="whiteSpace=wrap;html=1;rounded=1;glass=0;strokeWidth=1;shadow=0;fontSize=28;" vertex="1" parent="WIyWlLk6GJQsqaUBKTNV-1">
          <mxGeometry x="1327.5" y="305" width="192.5" height="115" as="geometry" />
        </mxCell>
        <mxCell id="n_4jIyUV8x4lz0zzY2AS-58" value="" style="edgeStyle=orthogonalEdgeStyle;rounded=0;orthogonalLoop=1;jettySize=auto;html=1;" edge="1" parent="WIyWlLk6GJQsqaUBKTNV-1" source="n_4jIyUV8x4lz0zzY2AS-55" target="n_4jIyUV8x4lz0zzY2AS-57">
          <mxGeometry relative="1" as="geometry" />
        </mxCell>
        <mxCell id="n_4jIyUV8x4lz0zzY2AS-55" value="Vector embedding" style="whiteSpace=wrap;html=1;fontSize=28;rounded=1;glass=0;strokeWidth=1;shadow=0;" vertex="1" parent="WIyWlLk6GJQsqaUBKTNV-1">
          <mxGeometry x="1340.63" y="526.5" width="166.25" height="122.5" as="geometry" />
        </mxCell>
        <mxCell id="n_4jIyUV8x4lz0zzY2AS-57" value="Elastic search" style="rounded=1;whiteSpace=wrap;html=1;fontSize=28;glass=0;strokeWidth=1;shadow=0;" vertex="1" parent="WIyWlLk6GJQsqaUBKTNV-1">
          <mxGeometry x="1347.19" y="760" width="153.13" height="118.75" as="geometry" />
        </mxCell>
      </root>
    </mxGraphModel>
  </diagram>
</mxfile>
